<svg xmlns="http://www.w3.org/2000/svg" width="53.004" height="53.004" viewBox="0 0 53.004 53.004">
  <g id="Group_18" data-name="Group 18" transform="translate(0.75 0.75)">
    <path id="Path_60" data-name="Path 60" d="M341.262,341.784h0a25.751,25.751,0,0,1-25.751-25.751h0a25.752,25.752,0,0,1,25.751-25.753h0a25.752,25.752,0,0,1,25.753,25.753h0A25.752,25.752,0,0,1,341.262,341.784Z" transform="translate(-315.511 -290.28)" fill="none" stroke="#222221" stroke-miterlimit="10" stroke-width="1.5"/>
    <g id="Group_17" data-name="Group 17" transform="translate(5.142 11.232)">
      <path id="Path_61" data-name="Path 61" d="M359.67,303.115a5.179,5.179,0,0,0-3.646-3.667c-3.214-.867-16.1-.867-16.1-.867s-12.889,0-16.1.867a5.18,5.18,0,0,0-3.644,3.667c-.861,3.235-.861,9.987-.861,9.987s0,6.75.861,9.985a5.184,5.184,0,0,0,3.644,3.668c3.215.866,16.1.866,16.1.866s12.891,0,16.1-.866a5.184,5.184,0,0,0,3.646-3.668c.861-3.236.861-9.985.861-9.985S360.531,306.35,359.67,303.115Z" transform="translate(-319.311 -298.58)" fill="#222221"/>
      <path id="Path_62" data-name="Path 62" d="M331.426,317.039V304.782l10.773,6.129Z" transform="translate(-315.032 -296.39)" fill="#fff"/>
    </g>
  </g>
</svg>
