<svg xmlns="http://www.w3.org/2000/svg" viewBox="0 0 156.67 156.67"><defs><style>.cls-1{fill:#fff;}.cls-2{fill:none;stroke:#fff;stroke-miterlimit:10;stroke-width:4px;}</style></defs><title>icn_logo</title><g id="Lager_2" data-name="Lager 2"><g id="Lager_1-2" data-name="Lager 1"><polygon class="cls-1" points="120.78 112.89 125.65 111.67 129.08 115.34 129.39 110.37 133.95 108.29 129.27 106.42 128.65 101.47 125.45 105.29 120.51 104.31 123.21 108.53 120.78 112.89"/><polygon class="cls-1" points="127.7 89.44 132.58 88.23 136.01 91.9 136.32 86.92 140.88 84.84 136.2 82.98 135.58 78.02 132.38 81.85 127.44 80.86 130.14 85.09 127.7 89.44"/><polygon class="cls-1" points="124.03 67.59 128.91 66.38 132.34 70.05 132.65 65.07 137.21 62.99 132.53 61.12 131.91 56.17 128.71 59.99 123.76 59.01 126.47 63.24 124.03 67.59"/><polygon class="cls-1" points="114.2 46.73 119.08 45.51 122.51 49.18 122.82 44.21 127.38 42.13 122.7 40.26 122.08 35.31 118.88 39.13 113.93 38.15 116.64 42.38 114.2 46.73"/><polygon class="cls-1" points="35.9 112.89 31.02 111.67 27.59 115.34 27.28 110.37 22.72 108.29 27.4 106.42 28.02 101.47 31.23 105.29 36.17 104.31 33.46 108.53 35.9 112.89"/><polygon class="cls-1" points="28.97 89.44 24.1 88.23 20.66 91.9 20.35 86.92 15.79 84.84 20.48 82.98 21.09 78.02 24.3 81.85 29.24 80.86 26.54 85.09 28.97 89.44"/><polygon class="cls-1" points="32.64 67.59 27.77 66.38 24.33 70.05 24.02 65.07 19.47 62.99 24.15 61.12 24.77 56.17 27.97 59.99 32.91 59.01 30.21 63.24 32.64 67.59"/><polygon class="cls-1" points="42.47 46.73 37.6 45.51 34.16 49.18 33.85 44.21 29.3 42.13 33.98 40.26 34.6 35.31 37.8 39.13 42.74 38.15 40.04 42.38 42.47 46.73"/><path class="cls-1" d="M94.16,78.66c-3.24,0-7.5-.6-7.3-6.49s0-15,1.42-21.3,8.93-17.45,7.91-25.77S88.89,8.46,78.34,8.86c-10.56-.4-16.85,7.92-17.86,16.24S67,44.58,68.39,50.87s1.22,15.42,1.43,21.3-4.06,6.49-7.31,6.49-8.72,4.06-8.72,10.76c0,5.5.68,46.77.92,61.33,1.49.46,3,.87,4.49,1.24V113.13a1.41,1.41,0,0,1,1.41-1.41h.66a1.41,1.41,0,0,1,1.42,1.41v39.64c.91.18,1.83.35,2.75.5V113.13a1.41,1.41,0,0,1,1.41-1.41h.66a1.41,1.41,0,0,1,1.42,1.41v40.62c1.38.15,2.76.26,4.15.35v-41a1.41,1.41,0,0,1,1.41-1.41h.66a1.42,1.42,0,0,1,1.42,1.41v41.09q1.73,0,3.45,0V113.13a1.41,1.41,0,0,1,1.41-1.41h.66a1.42,1.42,0,0,1,1.42,1.41V154c1.15-.09,2.3-.21,3.45-.35V113.13a1.41,1.41,0,0,1,1.41-1.41H89a1.42,1.42,0,0,1,1.42,1.41v40c1.15-.2,2.3-.43,3.44-.68V113.13a1.42,1.42,0,0,1,1.42-1.41H96a1.42,1.42,0,0,1,1.42,1.41v38.49c1.54-.41,3.06-.87,4.58-1.38.25-15,.92-55.39.92-60.82,0-6.7-5.48-10.76-8.73-10.76M82.64,24.08a4.31,4.31,0,1,1-4.3-4.31A4.32,4.32,0,0,1,82.64,24.08Z"/><path class="cls-2" d="M154.67,78.34A76.34,76.34,0,1,1,78.34,2,76.32,76.32,0,0,1,154.67,78.34Z"/></g></g></svg>