<svg xmlns="http://www.w3.org/2000/svg" width="53.004" height="53.004" viewBox="0 0 53.004 53.004">
  <g id="Group_21" data-name="Group 21" transform="translate(0.75 0.75)">
    <path id="Path_64" data-name="Path 64" d="M452.441,180.009h0a25.751,25.751,0,0,1-25.751-25.751h0a25.752,25.752,0,0,1,25.751-25.753h0a25.753,25.753,0,0,1,25.753,25.753h0A25.752,25.752,0,0,1,452.441,180.009Z" transform="translate(-426.69 -128.505)" fill="none" stroke="#222221" stroke-miterlimit="10" stroke-width="1.5"/>
    <g id="Group_20" data-name="Group 20" transform="translate(11.632 11.632)">
      <path id="Path_65" data-name="Path 65" d="M449.405,139.645c3.77,0,4.217.015,5.706.083a7.823,7.823,0,0,1,2.621.487,4.667,4.667,0,0,1,2.679,2.679,7.823,7.823,0,0,1,.487,2.621c.068,1.49.083,1.936.083,5.706s-.015,4.217-.083,5.705a7.826,7.826,0,0,1-.487,2.622,4.666,4.666,0,0,1-2.679,2.679,7.8,7.8,0,0,1-2.621.486c-1.49.068-1.935.083-5.706.083s-4.217-.015-5.705-.083a7.807,7.807,0,0,1-2.622-.486,4.677,4.677,0,0,1-2.679-2.679,7.8,7.8,0,0,1-.486-2.622c-.068-1.489-.083-1.935-.083-5.705s.015-4.217.083-5.706a7.8,7.8,0,0,1,.486-2.621,4.677,4.677,0,0,1,2.679-2.679,7.834,7.834,0,0,1,2.622-.487c1.489-.068,1.935-.083,5.705-.083m0-2.544c-3.835,0-4.315.018-5.821.085a10.373,10.373,0,0,0-3.428.656,7.22,7.22,0,0,0-4.129,4.13,10.338,10.338,0,0,0-.656,3.428c-.069,1.506-.085,1.986-.085,5.821s.016,4.315.085,5.821a10.338,10.338,0,0,0,.656,3.428,7.221,7.221,0,0,0,4.129,4.13,10.409,10.409,0,0,0,3.428.656c1.506.068,1.987.084,5.821.084s4.315-.016,5.821-.084a10.409,10.409,0,0,0,3.428-.656,7.228,7.228,0,0,0,4.13-4.13,10.374,10.374,0,0,0,.656-3.428c.069-1.506.085-1.986.085-5.821s-.016-4.315-.085-5.821a10.374,10.374,0,0,0-.656-3.428,7.228,7.228,0,0,0-4.13-4.13,10.374,10.374,0,0,0-3.428-.656c-1.506-.068-1.987-.085-5.821-.085" transform="translate(-435.286 -137.101)" fill="#222221"/>
      <path id="Path_66" data-name="Path 66" d="M447.612,142.178a7.25,7.25,0,1,0,7.25,7.25,7.251,7.251,0,0,0-7.25-7.25m0,11.957a4.706,4.706,0,1,1,4.706-4.706,4.706,4.706,0,0,1-4.706,4.706" transform="translate(-433.493 -135.308)" fill="#222221"/>
      <path id="Path_67" data-name="Path 67" d="M453.426,142.408a1.694,1.694,0,1,1-1.694-1.694,1.694,1.694,0,0,1,1.694,1.694" transform="translate(-430.076 -135.825)" fill="#222221"/>
    </g>
  </g>
</svg>
