<svg xmlns="http://www.w3.org/2000/svg" viewBox="0 0 189.32 152.84"><defs><style>.cls-1{fill:#fff;}</style></defs><title>icn_cut</title><g id="Lager_2" data-name="Lager 2"><g id="Lager_1-2" data-name="Lager 1"><path class="cls-1" d="M51.63,13.08c-4.61,4.34-5.58,12.29-1.9,19.26,3,5.62,8.19,9.12,13.34,9.53a16.66,16.66,0,0,1,13.11,8.75c1.6,2.92,2.6,5.34,2.6,5.34,2,5.87,5.24,13.94,9,22.94-7.1,20.47-21.24,61.87-22.29,69.81,0,0-1,5,1.81,4,0,0,14.45-30.55,26.9-58.93,12.45,28.38,26.9,58.93,26.9,58.93,2.86,1,1.81-4,1.81-4-1-7.94-15.19-49.34-22.29-69.81,3.79-9,7-17.07,9-22.94,0,0,1-2.42,2.6-5.34a16.66,16.66,0,0,1,13.11-8.75c5.15-.41,10.36-3.91,13.34-9.53,4.27-8.09,2.29-17.52-4.41-21.06s-15.61.14-19.88,8.23a18.44,18.44,0,0,0-2,11.81A17.61,17.61,0,0,1,110.18,44c-4.41,6.94-11,16.76-15.94,21.46C89.32,60.75,82.7,50.93,78.3,44A17.61,17.61,0,0,1,76,31.32a18.51,18.51,0,0,0-2-11.81c-4-7.59-12.09-11.3-18.61-8.81-2.2-3.13-5.36-8-5.59-10.33A.41.41,0,0,0,49.2.06L44.79,2.75a.39.39,0,0,0,0,.68c2,1.28,5,6.3,6.84,9.65m66.45,8.34c3-5.68,9.25-8.27,14-5.78s6.09,9.11,3.09,14.79-9.25,8.27-14,5.78-6.09-9.11-3.09-14.79M94.44,72.69a5,5,0,1,1-5,5,5,5,0,0,1,5-5m-38-57c4.71-2.49,11,.1,14,5.78S72,33.72,67.3,36.21s-10.95-.1-13.95-5.78-1.62-12.31,3.09-14.79"/><polygon class="cls-1" points="131.86 66.92 134.94 72.41 136.81 66.4 142.99 65.17 137.85 61.52 138.59 55.27 133.53 59.03 127.81 56.4 129.83 62.37 125.56 67 131.86 66.92"/><polygon class="cls-1" points="171.13 107.11 166.2 110.22 171.85 111.66 173.28 117.31 176.4 112.38 182.22 112.76 178.5 108.28 180.65 102.86 175.24 105.02 170.75 101.29 171.13 107.11"/><polygon class="cls-1" points="155.13 85.8 157.8 95.06 162.7 86.76 172.33 87.08 165.95 79.86 169.24 70.8 160.39 74.64 152.79 68.72 153.71 78.31 145.72 83.71 155.13 85.8"/><polygon class="cls-1" points="189.32 134.47 179.69 134.8 174.79 126.5 172.13 135.76 162.72 137.85 170.7 143.25 169.78 152.84 177.38 146.92 186.22 150.76 182.94 141.7 189.32 134.47"/><polygon class="cls-1" points="52.51 66.4 54.38 72.41 57.47 66.92 63.77 67 59.49 62.37 61.51 56.4 55.79 59.03 50.74 55.27 51.48 61.52 46.33 65.16 52.51 66.4"/><polygon class="cls-1" points="12.92 112.38 16.04 117.31 17.48 111.66 23.12 110.22 18.2 107.11 18.57 101.29 14.09 105.02 8.67 102.86 10.83 108.28 7.11 112.76 12.92 112.38"/><polygon class="cls-1" points="26.62 86.76 31.52 95.06 34.19 85.8 43.6 83.71 35.61 78.31 36.53 68.72 28.93 74.64 20.09 70.8 23.38 79.86 16.99 87.08 26.62 86.76"/><polygon class="cls-1" points="26.61 137.85 17.2 135.76 14.53 126.5 9.63 134.8 0 134.47 6.38 141.69 3.1 150.76 11.94 146.92 19.54 152.84 18.62 143.25 26.61 137.85"/></g></g></svg>