<svg xmlns="http://www.w3.org/2000/svg" viewBox="0 0 196.62 152.84"><defs><style>.cls-1{fill:#fff;}</style></defs><title>icn_comb</title><g id="Lager_2" data-name="Lager 2"><g id="Lager_1-2" data-name="Lager 1"><polygon class="cls-1" points="177.9 105.35 172.76 108.55 178.61 110.09 180.07 115.96 183.34 110.87 189.37 111.3 185.54 106.62 187.81 101.01 182.18 103.21 177.54 99.31 177.9 105.35"/><polygon class="cls-1" points="161.42 83.13 164.13 92.76 169.27 84.17 179.27 84.57 172.69 77.03 176.16 67.64 166.95 71.57 159.09 65.37 159.99 75.34 151.66 80.9 161.42 83.13"/><polygon class="cls-1" points="196.62 133.89 186.61 134.17 181.58 125.51 178.75 135.12 168.96 137.23 177.22 142.88 176.21 152.84 184.14 146.74 193.3 150.78 189.94 141.35 196.62 133.89"/><polygon class="cls-1" points="13.56 110.78 16.77 115.92 18.29 110.06 24.17 108.6 19.07 105.34 19.5 99.3 14.82 103.14 9.2 100.87 11.41 106.5 7.52 111.14 13.56 110.78"/><polygon class="cls-1" points="27.95 84.26 32.98 92.91 35.81 83.31 45.6 81.2 37.34 75.54 38.36 65.58 30.42 71.69 21.27 67.64 24.62 77.08 17.95 84.53 27.95 84.26"/><polygon class="cls-1" points="27.61 137.32 17.85 135.09 15.14 125.45 10 134.04 0 133.64 6.58 141.18 3.11 150.57 12.32 146.64 20.18 152.84 19.28 142.87 27.61 137.32"/><path class="cls-1" d="M131.61,84.7c-1.37-15.57-10.87-21.27-19.27-22.64-.94-.15-1.89-.25-2.84-.32,5.93-16.68,6-35.73,6-43C115.61,8.45,108.28.06,99.19,0S82.67,8.22,82.61,18.5c0,7.28-.57,26.43,5.27,43.17a27.25,27.25,0,0,0-6.38,1A20.13,20.13,0,0,0,70,71.12c-3.64,5.59-4.68,13.43-4.33,21.34.08,1.8.17,3.61.28,5.42A276.51,276.51,0,0,0,69.36,128c.76,4.5,1.63,9,2.64,13.32q.72,3.16,1.56,6.26c.35,1.32,1,4.9,2,4.91h2c.6,0,1.06-.86,1-1.82L75.53,114c-.15-1.76.62-3.43,1.69-3.68h0c1.07-.25,2.09,1,2.23,2.77l.76,9,2.56,30.58h1.56l-1.45-40.51c-.06-1.77.78-3.34,1.86-3.46h0c1.09-.12,2,1.25,2.09,3l1.42,39.46c0,.81.48,1.5,1,1.51h0c.56,0,1-.75,1-1.65l-.53-40.17c0-1.78.86-3.3,1.94-3.34h0c1.08,0,2,1.4,2,3.17l.53,40.48c0,.86.44,1.55,1,1.56h.22c.53,0,1-.72,1-1.6l.23-42c0-1.8.91-3.25,2-3.24h0c1.08,0,2,1.49,2,3.27l-.22,42c0,.87.43,1.61,1,1.61h.13c.53,0,1-.68,1-1.55l1-40.46c0-1.8,1-3.2,2-3.14h0c1.07.06,1.94,1.62,1.9,3.37l-1,40.16c0,.89.42,1.66,1,1.66h0c.51,0,.94-.65,1-1.49l1.84-39.44c.09-1.79,1-3.14,2.13-3h0c1.08.13,1.91,1.71,1.82,3.48l-1.89,40.49H114l3.74-39.51c.17-1.77,1.18-3,2.26-2.73h0c1.07.26,1.82,2,1.65,3.7L118.26,151c-.09,1,.36,1.84.95,1.84h1.89c.91,0,1.26-2.06,1.59-3.16a210.51,210.51,0,0,0,6.52-31.39c.8-5.87,1.47-11.78,1.93-17.74.41-5.22.93-10.6.47-15.85M99.06,22.81c-3.62,0-6.54-3.36-6.52-7.46S95.51,8,99.14,8s6.54,3.37,6.52,7.46-3,7.39-6.6,7.37"/></g></g></svg>