<svg id="eugiw0f4j24k1" xmlns="http://www.w3.org/2000/svg" xmlns:xlink="http://www.w3.org/1999/xlink" viewBox="0 0 102.170000 70" shape-rendering="geometricPrecision" text-rendering="geometricPrecision"><style><![CDATA[#eugiw0f4j24k5_to {animation: eugiw0f4j24k5_to__to 3000ms linear 1 normal forwards}@keyframes eugiw0f4j24k5_to__to { 0% {offset-distance: 0%} 10% {offset-distance: 33.333333%} 23.333333% {offset-distance: 66.666667%} 43.333333% {offset-distance: 100%} 100% {offset-distance: 100%} }#eugiw0f4j24k5_tr {animation: eugiw0f4j24k5_tr__tr 3000ms linear 1 normal forwards}@keyframes eugiw0f4j24k5_tr__tr { 0% {transform: rotate(0deg)} 10% {transform: rotate(52.352846deg)} 23.333333% {transform: rotate(52.352846deg)} 26.666667% {transform: rotate(46.796655deg)} 33.333333% {transform: rotate(-51.122151deg)} 43.333333% {transform: rotate(-68.698868deg)} 100% {transform: rotate(-68.698868deg)} }#eugiw0f4j24k5 {animation: eugiw0f4j24k5_c_o 3000ms linear 1 normal forwards}@keyframes eugiw0f4j24k5_c_o { 0% {opacity: 1} 33.333333% {opacity: 1} 43.333333% {opacity: 0} 100% {opacity: 0} }]]></style><g id="eugiw0f4j24k2"><g id="eugiw0f4j24k3"><g id="eugiw0f4j24k4"><g id="eugiw0f4j24k5_to" style="offset-path:path('M51.085000,55.730342C40.709491,56.628246,30.767424,48.100570,29.925351,46.193599Q28.992200,44.277742,28.868739,44.239166C40.394276,74.727627,68.640946,54.645548,91.914182,-6.044510');offset-rotate:0deg"><g id="eugiw0f4j24k5_tr" transform="rotate(0)"><path id="eugiw0f4j24k5" d="M9.732677,0.098310C9.841268,0.098310,9.929297,0.186340,9.929297,0.294930L9.929297,6.586761C9.929297,6.695352,9.841268,6.783381,9.732677,6.783381L0.294930,6.783381C0.186340,6.783381,0.098310,6.695352,0.098310,6.586761L0.098310,0.294930C0.098310,0.186340,0.186340,0.098310,0.294930,0.098310L9.732677,0.098310M9.732677,0L0.294930,0C0.132044,0,0,0.132044,0,0.294930L0,6.586761C0,6.749647,0.132044,6.881691,0.294930,6.881691L9.732677,6.881691C9.895563,6.881691,10.027607,6.749647,10.027607,6.586761L10.027607,0.294930C10.027607,0.132044,9.895563,0,9.732677,0Z" transform="translate(-4.056444,-3.129204)" fill="rgb(70,185,176)" stroke="rgb(253,7,7)" stroke-width="1" stroke-opacity="0.81"/></g></g></g><path id="eugiw0f4j24k6" display="none" d="M102.170000,33.500000C102.170000,34.330000,100.820000,35,99.170000,35L3.170000,35C1.510000,35,0.170000,34.330000,0.170000,33.500000L51.530000,0Z" fill="rgb(70,185,176)" stroke="none" stroke-width="1"/></g></g></svg>