<svg xmlns="http://www.w3.org/2000/svg" viewBox="0 0 102.17 70"><g id="edb5b420-725e-4c35-93da-0f5b3dc863cc" data-name="Lager 2"><g id="af439b30-f414-4b13-ae09-8cfb6af59a8a" data-name="Lager 1"><g id="f856a2a1-fa92-4261-a35e-e73284406dfe" data-name="Rectangle 21"><path d="M99,1a2,2,0,0,1,2,2V67a2,2,0,0,1-2,2H3a2,2,0,0,1-2-2V3A2,2,0,0,1,3,1H99m0-1H3A3,3,0,0,0,0,3V67a3,3,0,0,0,3,3H99a3,3,0,0,0,3-3V3a3,3,0,0,0-3-3Z" style="fill:#46b9b0"/></g><path id="fc2a4144-7f8c-42a6-8afc-338654e6f552" data-name="Rectangle 21" d="M102.17,33.5c0,.83-1.35,1.5-3,1.5h-96c-1.66,0-3-.67-3-1.5L51.53,0Z" style="fill:#46b9b0"/></g></g></svg>